<?xml version="1.0" standalone="no"?>
<!DOCTYPE svg PUBLIC "-//W3C//DTD SVG 20010904//EN"
 "http://www.w3.org/TR/2001/REC-SVG-20010904/DTD/svg10.dtd">
<svg version="1.0" xmlns="http://www.w3.org/2000/svg"
 width="512.000000pt" height="512.000000pt" viewBox="0 0 512.000000 512.000000"
 preserveAspectRatio="xMidYMid meet">
<metadata>
Created by potrace 1.14, written by Peter Selinger 2001-2017
</metadata>
<g transform="translate(0.000000,512.000000) scale(0.100000,-0.100000)"
fill="#000000" stroke="none">
<path d="M0 2560 l0 -2560 2560 0 2560 0 0 2560 0 2560 -2560 0 -2560 0 0
-2560z m1995 1454 c208 -15 279 -15 535 -5 860 34 988 34 1017 -5 26 -34 -1
-373 -35 -444 -32 -66 -68 -51 -111 44 -49 109 -129 158 -303 190 -127 24
-338 36 -610 36 -211 0 -249 -2 -262 -16 -14 -14 -16 -72 -16 -493 l0 -479
133 -13 c75 -8 236 -14 372 -13 285 0 336 10 382 71 46 61 119 133 135 133 9
0 26 -8 39 -19 l23 -19 -37 -158 c-34 -141 -38 -175 -40 -302 l-2 -144 -28
-24 c-30 -26 -62 -25 -83 2 -6 7 -14 53 -17 100 -10 136 -34 157 -199 175
-102 12 -448 7 -607 -7 l-74 -7 7 -596 c4 -328 9 -619 12 -647 l6 -52 56 -11
c222 -43 703 -33 892 20 144 40 246 110 316 216 53 83 74 103 105 103 55 0 52
-45 -17 -277 -61 -206 -70 -226 -109 -263 -26 -24 -30 -25 -209 -28 -101 -2
-320 4 -487 13 -504 26 -791 30 -965 11 -178 -19 -240 -20 -283 -5 -52 18 -69
80 -31 114 17 15 31 17 102 12 103 -8 147 3 187 48 79 91 83 159 79 1375 -3
943 -5 1030 -21 1085 -22 74 -44 112 -80 139 -24 18 -44 21 -125 23 -53 1
-105 2 -114 2 -45 2 -65 73 -28 106 42 38 62 39 495 9z"/>
</g>
</svg>
